<svg version="1.1" viewBox="0.0 0.0 200.0 200.0" fill="none" stroke="none" stroke-linecap="square" stroke-miterlimit="10" xmlns:xlink="http://www.w3.org/1999/xlink" xmlns="http://www.w3.org/2000/svg"><clipPath id="g29388671cc6_0_89.0"><path d="m0 0l200.0 0l0 200.0l-200.0 0l0 -200.0z" clip-rule="nonzero"/></clipPath><g clip-path="url(#g29388671cc6_0_89.0)"><path fill="#ffffff" d="m0 0l200.0 0l0 200.0l-200.0 0z" fill-rule="evenodd"/><path fill="#6aa84f" d="m-0.0012908137 -0.0011401575l200.0 0l0 199.68504l-200.0 0z" fill-rule="evenodd"/><path fill="#e69138" d="m0.8238117 200.79543l0 0c-0.35316244 -21.990616 18.27903 -42.422546 48.859825 -53.57933c30.580791 -11.156799 68.44986 -11.338211 99.30533 -0.47575378c30.855469 10.862457 49.995148 31.113434 50.190628 53.104797l-99.179596 0.33859253z" fill-rule="evenodd"/><path fill="#e69138" d="m199.1762 -0.931907l0 0c0.35316467 21.990614 -18.279037 42.422546 -48.859818 53.579334c-30.580795 11.156788 -68.44987 11.338211 -99.305336 0.47574997c-30.855467 -10.862457 -49.99515 -31.11343 -50.190636 -53.1048l99.179596 -0.338587z" fill-rule="evenodd"/></g></svg>