<svg version="1.1" viewBox="0.0 0.0 200.0 200.0" fill="none" stroke="none" stroke-linecap="square" stroke-miterlimit="10" xmlns:xlink="http://www.w3.org/1999/xlink" xmlns="http://www.w3.org/2000/svg"><clipPath id="g29388671cc6_0_163.0"><path d="m0 0l200.0 0l0 200.0l-200.0 0l0 -200.0z" clip-rule="nonzero"/></clipPath><g clip-path="url(#g29388671cc6_0_163.0)"><path fill="#ffffff" d="m0 0l200.0 0l0 200.0l-200.0 0z" fill-rule="evenodd"/><path fill="#6aa84f" d="m-0.0012908137 -0.0011401575l200.0 0l0 199.68504l-200.0 0z" fill-rule="evenodd"/><path fill="#cccccc" d="m200.0 119.19685l-200.0 0l0 -38.393707l200.0 0z" fill-rule="evenodd"/><path fill="#000000" fill-opacity="0.0" d="m200.0 100.0l-200.0 0" fill-rule="evenodd"/><path stroke="#595959" stroke-width="2.0" stroke-linejoin="round" stroke-linecap="butt" stroke-dasharray="16.0,6.0" d="m200.0 100.0l-200.0 0" fill-rule="evenodd"/><path fill="#e69138" d="m199.1762 -0.9292823l0 0c0.35316467 21.990616 -18.279037 42.422546 -48.859818 53.579334c-30.580795 11.156788 -68.44987 11.338211 -99.305336 0.47575378c-30.855467 -10.862461 -49.99515 -31.113434 -50.190636 -53.104805l99.179596 -0.33858696z" fill-rule="evenodd"/></g></svg>