<svg version="1.1" viewBox="0.0 0.0 200.0 200.0" fill="none" stroke="none" stroke-linecap="square" stroke-miterlimit="10" xmlns:xlink="http://www.w3.org/1999/xlink" xmlns="http://www.w3.org/2000/svg"><clipPath id="g29388671cc6_0_71.0"><path d="m0 0l200.0 0l0 200.0l-200.0 0l0 -200.0z" clip-rule="nonzero"/></clipPath><g clip-path="url(#g29388671cc6_0_71.0)"><path fill="#ffffff" d="m0 0l200.0 0l0 200.0l-200.0 0z" fill-rule="evenodd"/><path fill="#e69138" d="m-0.0012908137 -0.0011401575l200.0 0l0 199.68504l-200.0 0z" fill-rule="evenodd"/><path fill="#6aa84f" d="m-1.0736369 0.0049117105l0 0c21.990614 -0.35316244 42.422543 18.279032 53.57933 48.85982c11.156788 30.580791 11.338211 68.44986 0.47575378 99.30533c-10.862461 30.855469 -31.113432 49.995163 -53.1048 50.190643l-0.338587 -99.1796z" fill-rule="evenodd"/><path fill="#cccccc" d="m0 79.98425l61.007874 0l0 38.3937l-61.007874 0z" fill-rule="evenodd"/><path fill="#000000" fill-opacity="0.0" d="m0 99.1811l61.007874 0" fill-rule="evenodd"/><path stroke="#595959" stroke-width="2.0" stroke-linejoin="round" stroke-linecap="butt" stroke-dasharray="16.0,6.0" d="m0 99.1811l61.007874 0" fill-rule="evenodd"/><path fill="#4285f4" d="m181.42749 176.6651l-15.373825 7.812622l-15.37384 -7.812622z" fill-rule="evenodd"/><path fill="#4285f4" d="m150.67982 142.46648l30.747665 0l0 34.198624l-30.747665 0z" fill-rule="evenodd"/></g></svg>