<svg version="1.1" viewBox="0.0 0.0 200.0 200.0" fill="none" stroke="none" stroke-linecap="square" stroke-miterlimit="10" xmlns:xlink="http://www.w3.org/1999/xlink" xmlns="http://www.w3.org/2000/svg"><clipPath id="g2a56bccb6c1_0_17.0"><path d="m0 0l200.0 0l0 200.0l-200.0 0l0 -200.0z" clip-rule="nonzero"/></clipPath><g clip-path="url(#g2a56bccb6c1_0_17.0)"><path fill="#ffffff" d="m0 0l200.0 0l0 200.0l-200.0 0z" fill-rule="evenodd"/><path fill="#6aa84f" d="m-0.0012908137 -0.0011401575l200.0 0l0 199.68504l-200.0 0z" fill-rule="evenodd"/><path fill="#0b5394" d="m87.19685 200.3412l0 -48.283463l25.606293 0l0 48.283463z" fill-rule="evenodd"/><path fill="#0b5394" d="m87.2126 152.05774l8.31308 -56.818893l8.980133 0l8.313087 56.818893z" fill-rule="evenodd"/><path fill="#0b5394" d="m85.732285 85.46457l0 0c0 -8.027702 6.3949203 -14.535439 14.283463 -14.535439l0 0c3.788208 0 7.4212646 1.5314102 10.099937 4.257332c2.6786652 2.7259216 4.183525 6.423065 4.183525 10.278107l0 0c0 8.027695 -6.3949203 14.535431 -14.283463 14.535431l0 0c-7.888542 0 -14.283463 -6.507736 -14.283463 -14.535431z" fill-rule="evenodd"/></g></svg>