<svg version="1.1" viewBox="0.0 0.0 200.0 200.0" fill="none" stroke="none" stroke-linecap="square" stroke-miterlimit="10" xmlns:xlink="http://www.w3.org/1999/xlink" xmlns="http://www.w3.org/2000/svg"><clipPath id="g29388671cc6_0_50.0"><path d="m0 0l200.0 0l0 200.0l-200.0 0l0 -200.0z" clip-rule="nonzero"/></clipPath><g clip-path="url(#g29388671cc6_0_50.0)"><path fill="#ffffff" d="m0 0l200.0 0l0 200.0l-200.0 0z" fill-rule="evenodd"/><path fill="#6aa84f" d="m-0.0012908137 -0.0011401575l200.0 0l0 199.68504l-200.0 0z" fill-rule="evenodd"/><path fill="#e69138" d="m-0.9943912 0.008488633l0 0c21.986664 -0.267528 42.40043 15.981343 53.534275 42.612015c11.13385 26.630672 11.291737 59.586422 0.41404724 86.425125c-10.877686 26.838715 -31.133917 43.47197 -53.121155 43.620056l-0.29471904 -86.32972z" fill-rule="evenodd"/><path fill="#e69138" d="m27.341822 200.86841l0 0c-0.26752853 -21.986664 15.981344 -42.40042 42.612015 -53.53427c26.630676 -11.13385 59.58642 -11.291733 86.42513 -0.41404724c26.8387 10.877686 43.471954 31.133911 43.62004 53.121155l-86.32972 0.29470825z" fill-rule="evenodd"/></g></svg>