<svg version="1.1" viewBox="0.0 0.0 200.0 200.0" fill="none" stroke="none" stroke-linecap="square" stroke-miterlimit="10" xmlns:xlink="http://www.w3.org/1999/xlink" xmlns="http://www.w3.org/2000/svg"><clipPath id="g29388671cc6_0_210.0"><path d="m0 0l200.0 0l0 200.0l-200.0 0l0 -200.0z" clip-rule="nonzero"/></clipPath><g clip-path="url(#g29388671cc6_0_210.0)"><path fill="#ffffff" d="m0 0l200.0 0l0 200.0l-200.0 0z" fill-rule="evenodd"/><path fill="#6aa84f" d="m-0.0012908137 -0.0011401575l200.0 0l0 199.68504l-200.0 0z" fill-rule="evenodd"/><path fill="#000000" d="m73.11947 137.00244l0 -29.69394l53.760223 0l0 29.69394z" fill-rule="evenodd"/><path fill="#000000" d="m61.738148 107.3085l38.261433 -22.349426l38.261436 22.349426z" fill-rule="evenodd"/><path fill="#000000" d="m86.24877 103.76458l0 -32.181587l27.501617 0l0 32.181587z" fill-rule="evenodd"/><path fill="#000000" d="m79.35394 71.57312l20.645638 -16.071056l20.645638 16.071056z" fill-rule="evenodd"/><path fill="#ffff00" d="m95.2606 73.44873l9.477959 0l0 9.634735l-9.477959 0z" fill-rule="evenodd"/></g></svg>