<svg version="1.1" viewBox="0.0 0.0 200.0 200.0" fill="none" stroke="none" stroke-linecap="square" stroke-miterlimit="10" xmlns:xlink="http://www.w3.org/1999/xlink" xmlns="http://www.w3.org/2000/svg"><clipPath id="g2a56bccb6c1_0_53.0"><path d="m0 0l200.0 0l0 200.0l-200.0 0l0 -200.0z" clip-rule="nonzero"/></clipPath><g clip-path="url(#g2a56bccb6c1_0_53.0)"><path fill="#ffffff" d="m0 0l200.0 0l0 200.0l-200.0 0z" fill-rule="evenodd"/><path fill="#6aa84f" d="m-0.0012908137 -0.0011401575l200.0 0l0 199.68504l-200.0 0z" fill-rule="evenodd"/><path fill="#0b5394" d="m87.19685 199.68504l0 -46.992126l25.606293 0l0 46.992126z" fill-rule="evenodd"/><path fill="#0b5394" d="m0 87.03937l41.76378 0l0 25.6063l-41.76378 0z" fill-rule="evenodd"/><path fill="#0b5394" d="m39.006847 87.04776l0 0c39.801083 -0.5842514 72.69672 28.826538 73.77739 65.96167l-25.266617 0.6403961l0 0c-0.7318344 -23.26567 -22.158867 -41.68315 -48.084854 -41.331062z" fill-rule="evenodd"/></g></svg>