<svg version="1.1" viewBox="0.0 0.0 200.0 200.0" fill="none" stroke="none" stroke-linecap="square" stroke-miterlimit="10" xmlns:xlink="http://www.w3.org/1999/xlink" xmlns="http://www.w3.org/2000/svg"><clipPath id="g29388671cc6_0_81.0"><path d="m0 0l200.0 0l0 200.0l-200.0 0l0 -200.0z" clip-rule="nonzero"/></clipPath><g clip-path="url(#g29388671cc6_0_81.0)"><path fill="#ffffff" d="m0 0l200.0 0l0 200.0l-200.0 0z" fill-rule="evenodd"/><path fill="#6aa84f" d="m-0.0012908137 -0.0011401575l200.0 0l0 199.68504l-200.0 0z" fill-rule="evenodd"/><path fill="#e69138" d="m200.50394 199.4945l0 0c-56.724426 56.77661 -147.53659 57.97522 -202.83464 2.6771545c-55.298054 -55.29805 -54.14175 -146.15251 2.5826771 -202.92912l0 0c43.032482 87.0449 113.22732 157.23972 200.25197 200.25197z" fill-rule="evenodd"/><path fill="#4285f4" d="m44.745083 181.23203l-15.3738365 7.812622l-15.3738365 -7.812622z" fill-rule="evenodd"/><path fill="#4285f4" d="m13.99741 147.0334l30.747673 0l0 34.198624l-30.747673 0z" fill-rule="evenodd"/></g></svg>