<svg version="1.1" viewBox="0.0 0.0 200.0 200.0" fill="none" stroke="none" stroke-linecap="square" stroke-miterlimit="10" xmlns:xlink="http://www.w3.org/1999/xlink" xmlns="http://www.w3.org/2000/svg"><clipPath id="g29388671cc6_0_292.0"><path d="m0 0l200.0 0l0 200.0l-200.0 0l0 -200.0z" clip-rule="nonzero"/></clipPath><g clip-path="url(#g29388671cc6_0_292.0)"><path fill="#ffffff" d="m0 0l200.0 0l0 200.0l-200.0 0z" fill-rule="evenodd"/><path fill="#6aa84f" d="m-0.0012908137 -0.0011401575l200.0 0l0 199.68504l-200.0 0z" fill-rule="evenodd"/><path fill="#cccccc" d="m119.21135 134.0157l-0.03149414 65.98425l-38.3937 0l0.03149414 -65.98425z" fill-rule="evenodd"/><path fill="#000000" fill-opacity="0.0" d="m99.84 194.62425l0.03150177 -65.98425" fill-rule="evenodd"/><path stroke="#595959" stroke-width="2.0" stroke-linejoin="round" stroke-linecap="butt" stroke-dasharray="16.0,6.0" d="m99.84 194.62425l0.03150177 -65.98425" fill-rule="evenodd"/><path fill="#000000" d="m66.055115 138.69557l0 -34.72547l67.887924 0l0 34.72547z" fill-rule="evenodd"/><path fill="#000000" d="m51.68378 103.971344l48.31619 -30.191422l48.316193 30.191422z" fill-rule="evenodd"/><path fill="#000000" d="m82.635574 99.18392l0 -43.473515l34.72879 0l0 43.473515z" fill-rule="evenodd"/><path fill="#000000" d="m73.92885 55.697075l26.071121 -21.710087l26.071121 21.710087z" fill-rule="evenodd"/><path fill="#ffff00" d="m94.01563 58.230804l11.968674 0l0 13.015381l-11.968674 0z" fill-rule="evenodd"/></g></svg>