<svg version="1.1" viewBox="0.0 0.0 200.0 200.0" fill="none" stroke="none" stroke-linecap="square" stroke-miterlimit="10" xmlns:xlink="http://www.w3.org/1999/xlink" xmlns="http://www.w3.org/2000/svg"><clipPath id="g29388671cc6_0_257.0"><path d="m0 0l200.0 0l0 200.0l-200.0 0l0 -200.0z" clip-rule="nonzero"/></clipPath><g clip-path="url(#g29388671cc6_0_257.0)"><path fill="#ffffff" d="m0 0l200.0 0l0 200.0l-200.0 0z" fill-rule="evenodd"/><path fill="#6aa84f" d="m-0.0012908137 -0.0011401575l200.0 0l0 199.68504l-200.0 0z" fill-rule="evenodd"/><path fill="#cccccc" d="m200.0001 119.03937l-65.98425 0l0 -38.3937l65.98425 0z" fill-rule="evenodd"/><path fill="#000000" fill-opacity="0.0" d="m200.0001 99.84252l-65.98425 0" fill-rule="evenodd"/><path stroke="#595959" stroke-width="2.0" stroke-linejoin="round" stroke-linecap="butt" stroke-dasharray="16.0,6.0" d="m200.0001 99.84252l-65.98425 0" fill-rule="evenodd"/><path fill="#cccccc" d="m80.80325 199.68504l0 -65.98425l38.3937 0l0 65.98425z" fill-rule="evenodd"/><path fill="#000000" fill-opacity="0.0" d="m100.0001 199.68504l0 -65.98425" fill-rule="evenodd"/><path stroke="#595959" stroke-width="2.0" stroke-linejoin="round" stroke-linecap="butt" stroke-dasharray="16.0,6.0" d="m100.0001 199.68504l0 -65.98425" fill-rule="evenodd"/><path fill="#cccccc" d="m1.01574806E-4 80.80315l65.98425 0l0 38.393707l-65.98425 0z" fill-rule="evenodd"/><path fill="#000000" fill-opacity="0.0" d="m1.01574806E-4 100.0l65.98425 0" fill-rule="evenodd"/><path stroke="#595959" stroke-width="2.0" stroke-linejoin="round" stroke-linecap="butt" stroke-dasharray="16.0,6.0" d="m1.01574806E-4 100.0l65.98425 0" fill-rule="evenodd"/></g></svg>