<svg version="1.1" viewBox="0.0 0.0 200.0 200.0" fill="none" stroke="none" stroke-linecap="square" stroke-miterlimit="10" xmlns:xlink="http://www.w3.org/1999/xlink" xmlns="http://www.w3.org/2000/svg"><clipPath id="g29388671cc6_0_110.0"><path d="m0 0l200.0 0l0 200.0l-200.0 0l0 -200.0z" clip-rule="nonzero"/></clipPath><g clip-path="url(#g29388671cc6_0_110.0)"><path fill="#ffffff" d="m0 0l200.0 0l0 200.0l-200.0 0z" fill-rule="evenodd"/><path fill="#6aa84f" d="m-0.0012908137 -0.0011401575l200.0 0l0 199.68504l-200.0 0z" fill-rule="evenodd"/><path fill="#cccccc" d="m119.19685 0.005529921l0 45.51181l-38.393707 0l0 -45.51181z" fill-rule="evenodd"/><path fill="#cccccc" d="m199.99973 119.03937l-48.0 0l0 -38.3937l48.0 0z" fill-rule="evenodd"/><path fill="#cccccc" d="m158.46136 119.03461l0 0c-20.516388 0.2284317 -40.271225 -7.761696 -54.859932 -22.18888c-14.588715 -14.427185 -22.798286 -34.09185 -22.798286 -54.609505l38.40158 0c0 10.258827 4.104782 20.091156 11.399139 27.304749c7.2943573 7.2135925 17.171768 11.208656 27.429962 11.094444z" fill-rule="evenodd"/><path fill="#000000" fill-opacity="0.0" d="m99.874016 1.6433252l0.25196838 42.23622" fill-rule="evenodd"/><path stroke="#595959" stroke-width="2.0" stroke-linejoin="round" stroke-linecap="butt" stroke-dasharray="16.0,6.0" d="m99.874016 1.6433252l0.25196838 42.23622" fill-rule="evenodd"/><path fill="#000000" fill-opacity="0.0" d="m100.00394 42.23622c0 18.381882 7.540329 30.472427 11.998116 36.763763c4.457794 6.291336 5.8330383 6.78347 11.998116 10.421265c6.165085 3.6378021 17.119995 10.421272 34.23999 10.421272" fill-rule="evenodd"/><path stroke="#595959" stroke-width="2.0" stroke-linejoin="round" stroke-linecap="butt" stroke-dasharray="16.0,6.0" d="m100.00394 42.23622c0 18.381882 7.540329 30.472427 11.998116 36.763763c4.457794 6.291336 5.8330383 6.78347 11.998116 10.421265c6.165085 3.6378021 17.119995 10.421272 34.23999 10.421272" fill-rule="evenodd"/><path fill="#000000" fill-opacity="0.0" d="m199.99973 99.84252l-41.76378 0" fill-rule="evenodd"/><path stroke="#595959" stroke-width="2.0" stroke-linejoin="round" stroke-linecap="butt" stroke-dasharray="16.0,6.0" d="m199.99973 99.84252l-41.76378 0" fill-rule="evenodd"/><path fill="#e69138" d="m200.50394 199.4945l0 0c-56.724426 56.77661 -147.53659 57.97522 -202.83464 2.6771545c-55.298054 -55.29805 -54.14175 -146.15251 2.5826771 -202.92912l0 0c43.032482 87.0449 113.22732 157.23972 200.25197 200.25197z" fill-rule="evenodd"/><path fill="#4285f4" d="m44.745083 181.23203l-15.3738365 7.812622l-15.3738365 -7.812622z" fill-rule="evenodd"/><path fill="#4285f4" d="m13.99741 147.0334l30.747673 0l0 34.198624l-30.747673 0z" fill-rule="evenodd"/></g></svg>