<svg version="1.1" viewBox="0.0 0.0 200.0 200.0" fill="none" stroke="none" stroke-linecap="square" stroke-miterlimit="10" xmlns:xlink="http://www.w3.org/1999/xlink" xmlns="http://www.w3.org/2000/svg"><clipPath id="g2a56bccb6c1_0_29.0"><path d="m0 0l200.0 0l0 200.0l-200.0 0l0 -200.0z" clip-rule="nonzero"/></clipPath><g clip-path="url(#g2a56bccb6c1_0_29.0)"><path fill="#ffffff" d="m0 0l200.0 0l0 200.0l-200.0 0z" fill-rule="evenodd"/><path fill="#6aa84f" d="m-0.0012908137 -0.0011401575l200.0 0l0 199.68504l-200.0 0z" fill-rule="evenodd"/><path fill="#0b5394" d="m42.692913 100.0l0 0c0 -31.467186 25.657253 -56.97638 57.307087 -56.97638l0 0c15.198784 0 29.77507 6.0028534 40.522232 16.687996c10.747162 10.6851425 16.784851 25.177307 16.784851 40.288383l0 0c0 31.467178 -25.657257 56.97638 -57.307083 56.97638l0 0c-31.649834 0 -57.307087 -25.509201 -57.307087 -56.97638z" fill-rule="evenodd"/><path fill="#0b5394" d="m87.19685 45.97638l0 -51.244095l25.606293 0l0 51.244095z" fill-rule="evenodd"/></g></svg>