<svg version="1.1" viewBox="0.0 0.0 200.0 200.0" fill="none" stroke="none" stroke-linecap="square" stroke-miterlimit="10" xmlns:xlink="http://www.w3.org/1999/xlink" xmlns="http://www.w3.org/2000/svg"><clipPath id="g2a56bccb6c1_0_93.0"><path d="m0 0l200.0 0l0 200.0l-200.0 0l0 -200.0z" clip-rule="nonzero"/></clipPath><g clip-path="url(#g2a56bccb6c1_0_93.0)"><path fill="#ffffff" d="m0 0l200.0 0l0 200.0l-200.0 0z" fill-rule="evenodd"/><path fill="#6aa84f" d="m-0.0012908137 -0.0011401575l200.0 0l0 199.68504l-200.0 0z" fill-rule="evenodd"/><path fill="#e69138" d="m200.50394 199.4945l0 0c-56.724426 56.77661 -147.53659 57.97522 -202.83464 2.6771545c-55.298054 -55.29805 -54.14175 -146.15251 2.5826771 -202.92912l0 0c43.032482 87.0449 113.22732 157.23972 200.25197 200.25197z" fill-rule="evenodd"/><path fill="#0b5394" d="m151.72441 87.19685l48.283463 0l0 25.606293l-48.283463 0z" fill-rule="evenodd"/><path fill="#0b5394" d="m79.343834 46.992126l0 -46.992126l25.6063 0l0 46.992126z" fill-rule="evenodd"/><path fill="#0b5394" d="m153.14801 112.79476l0 0c-39.801086 0.5842438 -72.696724 -28.826538 -73.7774 -65.96167l25.266624 -0.6403961l0 0c0.7318268 23.265663 22.15886 41.68315 48.084854 41.331062z" fill-rule="evenodd"/></g></svg>